<svg height="511pt" viewBox="0 0 511 511.99945" width="511pt" xmlns="http://www.w3.org/2000/svg"><path d="m464.320312 47.980469h-79.96875v-15.992188c0-8.832031-7.160156-15.996093-15.992187-15.996093h-31.988281c-8.832032 0-15.992188 7.164062-15.992188 15.996093v15.992188h-127.953125v-15.992188c0-8.832031-7.160156-15.996093-15.992187-15.996093h-31.988282c-8.835937 0-15.996093 7.164062-15.996093 15.996093v15.992188h-79.96875c-17.644531.054687-31.933594 14.34375-31.988281 31.988281v63.976562h479.816406v-63.976562c-.050782-17.644531-14.34375-31.933594-31.988282-31.988281zm0 0" fill="#78b9eb"/><path d="m96.464844 223.914062h63.972656v63.976563h-63.972656zm0 0" fill="#78b9eb"/><path d="m224.414062 223.914062h63.976563v63.976563h-63.976563zm0 0" fill="#78b9eb"/><path d="m96.464844 351.863281h63.972656v63.976563h-63.972656zm0 0" fill="#78b9eb"/><path d="m496.308594 351.863281c-.050782-17.644531-14.34375-31.933593-31.988282-31.988281-9.148437-.023438-17.851562 3.949219-23.828124 10.878906-24.800782-14.503906-55.492188-14.503906-80.289063 0-5.980469-6.929687-14.683594-10.902344-23.832031-10.878906-17.667969.007812-31.980469 14.335938-31.976563 32.003906.007813 12.390625 7.167969 23.664063 18.382813 28.933594-1.613282 6.214844-2.421875 12.613281-2.398438 19.035156-.011718 29.285156 16.007813 56.230469 41.742188 70.210938 23.824218 13.007812 52.625 13.007812 76.449218 0 25.738282-13.980469 41.753907-40.925782 41.746094-70.210938.019532-6.421875-.785156-12.820312-2.398437-19.035156 11.222656-5.269531 18.390625-16.546875 18.390625-28.949219zm0 0" fill="#78b9eb"/><g fill="#1e81ce"><path d="m464.320312 31.988281h-63.972656c0-17.667969-14.324218-31.988281-31.988281-31.988281h-31.988281c-17.667969 0-31.988282 14.320312-31.988282 31.988281h-95.964843c0-17.667969-14.320313-31.988281-31.984375-31.988281h-31.988282c-17.667968 0-31.988281 14.320312-31.988281 31.988281h-63.976562c-26.5 0-47.980469 21.480469-47.980469 47.980469v383.851562c0 26.5 21.480469 47.984376 47.980469 47.984376h239.910156c8.832031 0 15.992187-7.160157 15.992187-15.996094 0-8.832032-7.160156-15.992188-15.992187-15.992188h-239.910156c-8.832031 0-15.992188-7.160156-15.992188-15.996094v-303.882812h447.828125v127.953125c0 8.832031 7.160156 15.992187 15.992188 15.992187 8.832031 0 15.996094-7.160156 15.996094-15.992187v-207.921875c0-26.5-21.484376-47.980469-47.984376-47.980469zm-431.832031 95.960938v-47.980469c0-8.832031 7.160157-15.992188 15.992188-15.992188h63.976562v15.992188c0 8.832031 7.160157 15.992188 15.992188 15.992188 8.835937 0 15.996093-7.160157 15.996093-15.992188v-47.980469h31.988282v47.980469c0 8.832031 7.160156 15.996094 15.992187 15.996094s15.996094-7.164063 15.996094-15.996094v-15.992188h95.960937v15.992188c0 8.832031 7.160157 15.996094 15.996094 15.996094 8.832032 0 15.992188-7.164063 15.992188-15.996094v-47.980469h31.988281v47.980469c0 8.832031 7.160156 15.996094 15.992187 15.996094 8.835938 0 15.996094-7.164063 15.996094-15.996094v-15.992188h63.976563c8.832031 0 15.992187 7.160157 15.992187 15.992188v47.984375h-447.828125zm0 0"/><path d="m176.433594 223.914062c0-8.832031-7.164063-15.992187-15.996094-15.992187h-63.976562c-8.832032 0-15.992188 7.160156-15.992188 15.992187v63.976563c0 8.832031 7.160156 15.992187 15.992188 15.992187h63.976562c8.832031 0 15.996094-7.160156 15.996094-15.992187zm-31.988282 47.980469h-31.988281v-31.988281h31.988281zm0 0"/><path d="m304.382812 287.890625v-63.976563c0-8.832031-7.160156-15.992187-15.992187-15.992187h-63.976563c-8.832031 0-15.996093 7.160156-15.996093 15.992187v63.976563c0 8.832031 7.164062 15.992187 15.996093 15.992187h63.976563c8.832031 0 15.992187-7.160156 15.992187-15.992187zm-31.988281-15.996094h-31.988281v-31.988281h31.988281zm0 0"/><path d="m368.359375 271.894531v-31.988281h31.988281c0 8.835938 7.160156 15.996094 15.992188 15.996094 8.832031 0 15.996094-7.160156 15.996094-15.996094v-15.992188c0-8.832031-7.164063-15.992187-15.996094-15.992187h-63.976563c-8.832031 0-15.992187 7.160156-15.992187 15.992187v47.980469c0 8.835938 7.160156 15.996094 15.992187 15.996094 8.835938 0 15.996094-7.160156 15.996094-15.996094zm0 0"/><path d="m160.4375 335.871094h-63.976562c-8.832032 0-15.992188 7.160156-15.992188 15.992187v63.976563c0 8.832031 7.160156 15.996094 15.992188 15.996094h63.976562c8.832031 0 15.996094-7.164063 15.996094-15.996094v-63.976563c0-8.832031-7.160156-15.992187-15.996094-15.992187zm-15.992188 63.976562h-31.988281v-31.988281h31.988281zm0 0"/><path d="m256.402344 367.859375c8.832031 0 15.992187-7.160156 15.992187-15.996094 0-8.832031-7.160156-15.992187-15.992187-15.992187h-31.988282c-8.832031 0-15.996093 7.160156-15.996093 15.992187v63.976563c0 8.832031 7.164062 15.996094 15.996093 15.996094h31.988282c8.832031 0 15.992187-7.164063 15.992187-15.996094 0-8.832032-7.160156-15.992188-15.992187-15.992188h-15.996094v-31.988281zm0 0"/><path d="m512.304688 351.863281c0-26.5-21.484376-47.980469-47.984376-47.980469-9.269531.058594-18.316406 2.839844-26.019531 7.996094-7.039062-3.003906-14.410156-5.152344-21.960937-6.398437v-17.59375c0-8.832031-7.160156-15.992188-15.992188-15.992188-8.835937 0-15.996094 7.160157-15.996094 15.992188v17.59375c-7.546874 1.253906-14.917968 3.398437-21.957031 6.398437-7.707031-5.15625-16.753906-7.9375-26.023437-7.996094-26.5.054688-47.9375 21.582032-47.882813 48.082032.03125 13.914062 6.097657 27.128906 16.628907 36.222656-.488282 3.867188-.734376 7.761719-.734376 11.660156.046876 27.734375 12.128907 54.085938 33.109376 72.226563l-12.429688 12.425781c-6.351562 6.136719-6.527344 16.261719-.394531 22.617188 6.136719 6.351562 16.261719 6.53125 22.617187.394531.132813-.128907.265625-.261719.394532-.394531l17.847656-17.851563c22.394531 8.722656 47.242187 8.722656 69.636718 0l17.851563 17.851563c6.351563 6.136718 16.476563 5.960937 22.613281-.394532 5.988282-6.199218 5.988282-16.023437 0-22.222656l-12.425781-12.425781c20.976563-18.144531 33.054687-44.492188 33.105469-72.226563.003906-3.90625-.234375-7.804687-.71875-11.675781 10.566406-9.109375 16.664062-22.355469 16.714844-36.308594zm-81.425782 104.183594c-31.050781 16.863281-69.890625 5.363281-86.753906-25.6875-5.085938-9.367187-7.75-19.855469-7.753906-30.511719-.007813-5.160156.648437-10.300781 1.949218-15.292968 1.003907-4.164063 2.4375-8.21875 4.269532-12.089844 15.09375-31.890625 53.179687-45.507813 85.066406-30.414063 17.488281 8.273438 30.28125 24.027344 34.792969 42.839844 1.257812 4.886719 1.886719 9.910156 1.871093 14.957031-.003906 23.445313-12.835937 45.011719-33.441406 56.199219zm0 0"/><path d="m432.332031 383.851562h-15.992187v-15.992187c0-8.835937-7.160156-15.996094-15.992188-15.996094-8.835937 0-15.996094 7.160157-15.996094 15.996094v31.988281c0 8.832032 7.160157 15.992188 15.996094 15.992188h31.984375c8.835938 0 15.996094-7.160156 15.996094-15.992188 0-8.835937-7.160156-15.996094-15.996094-15.996094zm0 0"/></g></svg>