<svg height="511.99997pt" viewBox="1 1 511.99997 511.99997" width="511.99997pt" xmlns="http://www.w3.org/2000/svg"><path d="m464 48h-80v-16c0-8.835938-7.164062-16-16-16h-32c-8.835938 0-16 7.164062-16 16v16h-128v-16c0-8.835938-7.164062-16-16-16h-32c-8.835938 0-16 7.164062-16 16v16h-80c-17.652344.050781-31.949219 14.347656-32 32v64h480v-64c-.050781-17.652344-14.347656-31.949219-32-32zm0 0" fill="#78b9eb"/><path d="m96 224h64v64h-64zm0 0" fill="#78b9eb"/><path d="m224 224h64v64h-64zm0 0" fill="#78b9eb"/><path d="m96 352h64v64h-64zm0 0" fill="#78b9eb"/><path d="m400 368c-53.023438 0-96 48-96 48s42.976562 48 96 48 96-48 96-48-42.976562-48-96-48zm0 80c-17.671875 0-32-14.328125-32-32s14.328125-32 32-32 32 14.328125 32 32-14.328125 32-32 32zm0 0" fill="#78b9eb"/><path d="m432 416c0 17.671875-14.328125 32-32 32s-32-14.328125-32-32 14.328125-32 32-32 32 14.328125 32 32zm0 0" fill="#78b9eb"/><g fill="#1e81ce"><path d="m464 32h-64c0-17.671875-14.328125-32-32-32h-32c-17.671875 0-32 14.328125-32 32h-96c0-17.671875-14.328125-32-32-32h-32c-17.671875 0-32 14.328125-32 32h-64c-26.507812 0-48 21.492188-48 48v384c0 26.507812 21.492188 48 48 48h240c8.835938 0 16-7.164062 16-16s-7.164062-16-16-16h-240c-8.835938 0-16-7.164062-16-16v-304h448v128c0 8.835938 7.164062 16 16 16s16-7.164062 16-16v-208c0-26.507812-21.492188-48-48-48zm-432 96v-48c0-8.835938 7.164062-16 16-16h64v16c0 8.835938 7.164062 16 16 16s16-7.164062 16-16v-48h32v48c0 8.835938 7.164062 16 16 16s16-7.164062 16-16v-16h96v16c0 8.835938 7.164062 16 16 16s16-7.164062 16-16v-48h32v48c0 8.835938 7.164062 16 16 16s16-7.164062 16-16v-16h64c8.835938 0 16 7.164062 16 16v48zm0 0"/><path d="m176 224c0-8.835938-7.164062-16-16-16h-64c-8.835938 0-16 7.164062-16 16v64c0 8.835938 7.164062 16 16 16h64c8.835938 0 16-7.164062 16-16zm-32 48h-32v-32h32zm0 0"/><path d="m224 304h64c8.835938 0 16-7.164062 16-16v-64c0-8.835938-7.164062-16-16-16h-64c-8.835938 0-16 7.164062-16 16v64c0 8.835938 7.164062 16 16 16zm16-64h32v32h-32zm0 0"/><path d="m416 272c8.835938 0 16-7.164062 16-16v-32c0-8.835938-7.164062-16-16-16h-64c-8.835938 0-16 7.164062-16 16v48c0 8.835938 7.164062 16 16 16s16-7.164062 16-16v-32h32v16c0 8.835938 7.164062 16 16 16zm0 0"/><path d="m160 336h-64c-8.835938 0-16 7.164062-16 16v64c0 8.835938 7.164062 16 16 16h64c8.835938 0 16-7.164062 16-16v-64c0-8.835938-7.164062-16-16-16zm-16 64h-32v-32h32zm0 0"/><path d="m272 368c8.835938 0 16-7.164062 16-16s-7.164062-16-16-16h-48c-8.835938 0-16 7.164062-16 16v64c0 8.835938 7.164062 16 16 16h32c8.835938 0 16-7.164062 16-16s-7.164062-16-16-16h-16v-32zm0 0"/><path d="m400 352c-59.488281 0-105.96875 51.199219-107.921875 53.328125-5.4375 6.074219-5.4375 15.269531 0 21.34375 1.953125 2.128906 48.433594 53.328125 107.921875 53.328125s105.96875-51.199219 107.917969-53.328125c5.441406-6.074219 5.441406-15.269531 0-21.34375-1.949219-2.128906-48.429688-53.328125-107.917969-53.328125zm0 80c-8.835938 0-16-7.164062-16-16s7.164062-16 16-16 16 7.164062 16 16-7.164062 16-16 16zm-43.441406-36.097656c-6.078125 12.707031-6.078125 27.484375 0 40.195312-10.492188-5.605468-20.335938-12.34375-29.359375-20.097656 9.015625-7.765625 18.859375-14.503906 29.359375-20.097656zm86.898437 40.195312c6.058594-12.714844 6.058594-27.480468 0-40.195312 10.484375 5.601562 20.316407 12.34375 29.328125 20.097656-9.003906 7.765625-18.839844 14.503906-29.328125 20.097656zm0 0"/></g></svg>