<svg height="511pt" viewBox="0 0 511 511.99992" width="511pt" xmlns="http://www.w3.org/2000/svg"><path d="m96.371094 223.703125h63.917968v63.917969h-63.917968zm0 0" fill="#78b9eb"/><path d="m224.203125 223.703125h63.917969v63.917969h-63.917969zm0 0" fill="#78b9eb"/><path d="m96.371094 351.535156h63.917968v63.914063h-63.917968zm0 0" fill="#78b9eb"/><path d="m463.886719 47.9375h-79.894531v-15.980469c0-8.824219-7.152344-15.976562-15.976563-15.976562h-31.960937c-8.824219 0-15.976563 7.152343-15.976563 15.976562v15.980469h-127.832031v-15.980469c0-8.824219-7.152344-15.976562-15.980469-15.976562h-31.957031c-8.824219 0-15.976563 7.152343-15.976563 15.976562v15.980469h-79.894531c-17.628906.050781-31.90625 14.328125-31.957031 31.957031v63.914063h479.363281v-63.914063c-.050781-17.628906-14.328125-31.90625-31.957031-31.957031zm0 0" fill="#78b9eb"/><path d="m415.949219 367.515625c-35.378907-.082031-64.125 28.53125-64.203125 63.910156-.082032 35.378907 28.535156 64.125 63.910156 64.207031 35.378906.078126 64.125-28.535156 64.207031-63.914062.035157-15.632812-5.648437-30.738281-15.976562-42.472656-12.09375-13.820313-29.570313-21.742188-47.9375-21.730469zm0 0" fill="#78b9eb"/><g fill="#1e81ce"><path d="m463.886719 31.957031h-63.914063c0-17.648437-14.308594-31.957031-31.957031-31.957031h-31.960937c-17.648438 0-31.957032 14.308594-31.957032 31.957031h-95.871094c0-17.648437-14.308593-31.957031-31.960937-31.957031h-31.957031c-17.648438 0-31.957032 14.308594-31.957032 31.957031h-63.914062c-26.476562 0-47.9375 21.460938-47.9375 47.9375v383.492188c0 26.476562 21.460938 47.9375 47.9375 47.9375h239.683594c8.824218 0 15.976562-7.15625 15.976562-15.980469s-7.152344-15.976562-15.976562-15.976562h-239.683594c-8.824219 0-15.980469-7.15625-15.980469-15.980469v-303.597657h447.410157v127.832032c0 8.824218 7.152343 15.976562 15.976562 15.976562s15.980469-7.152344 15.980469-15.976562v-207.726563c0-26.476562-21.460938-47.9375-47.9375-47.9375zm-431.429688 95.875v-47.9375c0-8.824219 7.15625-15.980469 15.980469-15.980469h63.914062v15.980469c0 8.824219 7.15625 15.976563 15.980469 15.976563s15.976563-7.152344 15.976563-15.976563v-47.9375h31.960937v47.9375c0 8.824219 7.152344 15.980469 15.976563 15.980469 8.824218 0 15.980468-7.15625 15.980468-15.980469v-15.980469h95.871094v15.980469c0 8.824219 7.15625 15.980469 15.980469 15.980469s15.980469-7.15625 15.980469-15.980469v-47.9375h31.957031v47.9375c0 8.824219 7.152344 15.980469 15.976563 15.980469 8.828124 0 15.980468-7.15625 15.980468-15.980469v-15.980469h63.914063c8.828125 0 15.980469 7.15625 15.980469 15.980469v47.9375zm0 0"/><path d="m176.265625 223.703125c0-8.824219-7.152344-15.976563-15.976563-15.976563h-63.917968c-8.824219 0-15.976563 7.152344-15.976563 15.976563v63.917969c0 8.824218 7.152344 15.976562 15.976563 15.976562h63.917968c8.824219 0 15.976563-7.152344 15.976563-15.976562zm-31.957031 47.9375h-31.957032v-31.957031h31.957032zm0 0"/><path d="m288.121094 207.726562h-63.917969c-8.824219 0-15.976563 7.152344-15.976563 15.976563v63.917969c0 8.824218 7.152344 15.976562 15.976563 15.976562h63.917969c8.824218 0 15.976562-7.152344 15.976562-15.976562v-63.917969c0-8.824219-7.152344-15.976563-15.976562-15.976563zm-15.980469 63.914063h-31.957031v-31.957031h31.957031zm0 0"/><path d="m415.949219 271.640625c8.824219 0 15.980469-7.152344 15.980469-15.980469v-31.957031c0-8.824219-7.15625-15.976563-15.980469-15.976563h-63.914063c-8.824218 0-15.980468 7.152344-15.980468 15.976563v47.9375c0 8.824219 7.15625 15.980469 15.980468 15.980469 8.824219 0 15.980469-7.15625 15.980469-15.980469v-31.957031h31.957031v15.976562c0 8.828125 7.152344 15.980469 15.976563 15.980469zm0 0"/><path d="m160.289062 335.554688h-63.917968c-8.824219 0-15.976563 7.15625-15.976563 15.980468v63.914063c0 8.824219 7.152344 15.980469 15.976563 15.980469h63.917968c8.824219 0 15.976563-7.15625 15.976563-15.980469v-63.914063c0-8.824218-7.152344-15.980468-15.976563-15.980468zm-15.980468 63.917968h-31.957032v-31.957031h31.957032zm0 0"/><path d="m272.140625 367.515625c8.824219 0 15.980469-7.15625 15.980469-15.980469 0-8.824218-7.15625-15.980468-15.980469-15.980468h-47.9375c-8.824219 0-15.976563 7.15625-15.976563 15.980468v63.914063c0 8.824219 7.152344 15.980469 15.976563 15.980469h31.957031c8.828125 0 15.980469-7.15625 15.980469-15.980469s-7.152344-15.976563-15.980469-15.976563h-15.976562v-31.957031zm0 0"/><path d="m479.867188 351.535156c0-35.300781-28.617188-63.914062-63.917969-63.914062-35.296875 0-63.914063 28.613281-63.914063 63.914062v32.628906c-26.476562 35.300782-19.320312 85.378907 15.980469 111.851563 35.296875 26.476563 85.375 19.320313 111.851563-15.976563 21.304687-28.410156 21.304687-67.46875 0-95.875zm-95.875 0c0-17.648437 14.308593-31.957031 31.957031-31.957031 17.652343 0 31.960937 14.304687 31.960937 31.957031v6.695313c-.226562-.097657-.464844-.128907-.6875-.207031-4.738281-2.066407-9.660156-3.671876-14.703125-4.796876-.191406 0-.398437 0-.589843-.09375-10.535157-2.214843-21.421876-2.214843-31.957032 0-.191406 0-.398437 0-.589844.09375-5.027343 1.128907-9.933593 2.734376-14.652343 4.796876-.242188.09375-.496094.125-.738281.222656zm31.957031 127.832032c-26.472657 0-47.933594-21.460938-47.933594-47.9375 0-26.476563 21.460937-47.9375 47.933594-47.9375 26.476562 0 47.9375 21.460937 47.9375 47.9375 0 26.476562-21.460938 47.9375-47.9375 47.9375zm0 0"/><path d="m415.949219 399.472656c-8.824219 0-15.976563 7.152344-15.976563 15.976563v31.960937c0 8.824219 7.152344 15.976563 15.976563 15.976563s15.980469-7.152344 15.980469-15.976563v-31.960937c0-8.824219-7.15625-15.976563-15.980469-15.976563zm0 0"/></g></svg>