<svg height="511.99997pt" viewBox="1 1 511.99997 511.99997" width="511.99997pt" xmlns="http://www.w3.org/2000/svg"><path d="m464 48h-80v-16c0-8.835938-7.164062-16-16-16h-32c-8.835938 0-16 7.164062-16 16v16h-128v-16c0-8.835938-7.164062-16-16-16h-32c-8.835938 0-16 7.164062-16 16v16h-80c-17.652344.050781-31.949219 14.347656-32 32v64h480v-64c-.050781-17.652344-14.347656-31.949219-32-32zm0 0" fill="#78b9eb"/><path d="m96 224h64v64h-64zm0 0" fill="#78b9eb"/><path d="m224 224h64v64h-64zm0 0" fill="#78b9eb"/><path d="m96 352h64v64h-64zm0 0" fill="#78b9eb"/><path d="m304 368v128h192v-128l-96 64zm0 0" fill="#78b9eb"/><path d="m400 432 96-64h-192zm0 0" fill="#78b9eb"/><g fill="#1e81ce"><path d="m464 32h-64c0-17.671875-14.328125-32-32-32h-32c-17.671875 0-32 14.328125-32 32h-96c0-17.671875-14.328125-32-32-32h-32c-17.671875 0-32 14.328125-32 32h-64c-26.507812 0-48 21.492188-48 48v384c0 26.507812 21.492188 48 48 48h192c8.835938 0 16-7.164062 16-16s-7.164062-16-16-16h-192c-8.835938 0-16-7.164062-16-16v-304h448v144c0 8.835938 7.164062 16 16 16s16-7.164062 16-16v-224c0-26.507812-21.492188-48-48-48zm-432 96v-48c0-8.835938 7.164062-16 16-16h64v16c0 8.835938 7.164062 16 16 16s16-7.164062 16-16v-48h32v48c0 8.835938 7.164062 16 16 16s16-7.164062 16-16v-16h96v16c0 8.835938 7.164062 16 16 16s16-7.164062 16-16v-48h32v48c0 8.835938 7.164062 16 16 16s16-7.164062 16-16v-16h64c8.835938 0 16 7.164062 16 16v48zm0 0"/><path d="m176 224c0-8.835938-7.164062-16-16-16h-64c-8.835938 0-16 7.164062-16 16v64c0 8.835938 7.164062 16 16 16h64c8.835938 0 16-7.164062 16-16zm-32 48h-32v-32h32zm0 0"/><path d="m224 304h64c8.835938 0 16-7.164062 16-16v-64c0-8.835938-7.164062-16-16-16h-64c-8.835938 0-16 7.164062-16 16v64c0 8.835938 7.164062 16 16 16zm16-64h32v32h-32zm0 0"/><path d="m416 288c8.835938 0 16-7.164062 16-16v-48c0-8.835938-7.164062-16-16-16h-64c-8.835938 0-16 7.164062-16 16v48c0 8.835938 7.164062 16 16 16s16-7.164062 16-16v-32h32v32c0 8.835938 7.164062 16 16 16zm0 0"/><path d="m160 336h-64c-8.835938 0-16 7.164062-16 16v64c0 8.835938 7.164062 16 16 16h64c8.835938 0 16-7.164062 16-16v-64c0-8.835938-7.164062-16-16-16zm-16 64h-32v-32h32zm0 0"/><path d="m256 368c8.835938 0 16-7.164062 16-16s-7.164062-16-16-16h-32c-8.835938 0-16 7.164062-16 16v64c0 8.835938 7.164062 16 16 16h32c8.835938 0 16-7.164062 16-16s-7.164062-16-16-16h-16v-32zm0 0"/><path d="m511.3125 363.359375c-.097656-.304687-.304688-.542969-.417969-.847656-.265625-.648438-.574219-1.277344-.925781-1.886719-.554688-1.082031-1.238281-2.089844-2.03125-3.007812-.449219-.53125-.9375-1.027344-1.457031-1.488282-.972657-.835937-2.050781-1.546875-3.199219-2.113281-.519531-.316406-1.050781-.605469-1.601562-.863281-1.804688-.730469-3.730469-1.121094-5.679688-1.152344h-192c-1.953125.03125-3.882812.421875-5.695312 1.152344-.550782.257812-1.082032.546875-1.601563.863281-1.148437.566406-2.226563 1.277344-3.199219 2.113281-.519531.460938-1.007812.957032-1.457031 1.488282-.796875.917968-1.476563 1.925781-2.03125 3.007812-.351563.609375-.660156 1.238281-.925781 1.886719-.113282.304687-.320313.542969-.417969.847656-.308594 1.191406-.46875 2.417969-.480469 3.648437-.082031.328126-.144531.660157-.191406.992188v128c0 8.835938 7.164062 16 16 16h192c8.835938 0 16-7.164062 16-16v-128c0-.351562-.175781-.65625-.207031-1.007812-.011719-1.226563-.171875-2.445313-.480469-3.632813zm-68.113281 20.640625-43.199219 28.800781-43.199219-28.800781zm-123.199219 96v-82.113281l71.121094 47.425781c5.375 3.585938 12.382812 3.585938 17.757812 0l71.121094-47.425781v82.113281zm0 0"/></g></svg>