<svg height="512pt" viewBox="0 0 512.00066 512" width="512pt" xmlns="http://www.w3.org/2000/svg"><path d="m464 48h-80v-16c0-8.835938-7.164062-16-16-16h-32c-8.835938 0-16 7.164062-16 16v16h-128v-16c0-8.835938-7.164062-16-16-16h-32c-8.835938 0-16 7.164062-16 16v16h-80c-17.652344.054688-31.949219 14.347656-32 32v64h480v-64c-.050781-17.652344-14.347656-31.945312-32-32zm0 0" fill="#78b9eb"/><path d="m96 224h64v64h-64zm0 0" fill="#78b9eb"/><path d="m224 224h64v64h-64zm0 0" fill="#78b9eb"/><path d="m96 352h64v64h-64zm0 0" fill="#78b9eb"/><path d="m400 320c-35.347656 0-64 28.65625-64 64v96h128v-96c0-35.347656-28.652344-64-64-64zm0 0" fill="#78b9eb"/><g fill="#1e81ce"><path d="m464 32h-64c0-17.671875-14.328125-32-32-32h-32c-17.671875 0-32 14.328125-32 32h-96c0-17.671875-14.328125-32-32-32h-32c-17.671875 0-32 14.328125-32 32h-64c-26.507812 0-48 21.492188-48 48v384c0 26.511719 21.492188 48 48 48h208c8.835938 0 16-7.164062 16-16s-7.164062-16-16-16h-208c-8.835938 0-16-7.164062-16-16v-304h448v128c0 8.835938 7.164062 16 16 16s16-7.164062 16-16v-208c0-26.507812-21.492188-48-48-48zm-432 96v-48c0-8.835938 7.164062-16 16-16h64v16c0 8.835938 7.164062 16 16 16s16-7.164062 16-16v-48h32v48c0 8.835938 7.164062 16 16 16s16-7.164062 16-16v-16h96v16c0 8.835938 7.164062 16 16 16s16-7.164062 16-16v-48h32v48c0 8.835938 7.164062 16 16 16s16-7.164062 16-16v-16h64c8.835938 0 16 7.164062 16 16v48zm0 0"/><path d="m176 224c0-8.835938-7.164062-16-16-16h-64c-8.835938 0-16 7.164062-16 16v64c0 8.835938 7.164062 16 16 16h64c8.835938 0 16-7.164062 16-16zm-32 48h-32v-32h32zm0 0"/><path d="m224 304h64c8.835938 0 16-7.164062 16-16v-64c0-8.835938-7.164062-16-16-16h-64c-8.835938 0-16 7.164062-16 16v64c0 8.835938 7.164062 16 16 16zm16-64h32v32h-32zm0 0"/><path d="m416 272c8.835938 0 16-7.164062 16-16v-32c0-8.835938-7.164062-16-16-16h-64c-8.835938 0-16 7.164062-16 16v48c0 8.835938 7.164062 16 16 16s16-7.164062 16-16v-32h32v16c0 8.835938 7.164062 16 16 16zm0 0"/><path d="m160 336h-64c-8.835938 0-16 7.164062-16 16v64c0 8.835938 7.164062 16 16 16h64c8.835938 0 16-7.164062 16-16v-64c0-8.835938-7.164062-16-16-16zm-16 64h-32v-32h32zm0 0"/><path d="m272 336h-48c-8.835938 0-16 7.164062-16 16v64c0 8.835938 7.164062 16 16 16h32c8.835938 0 16-7.164062 16-16s-7.164062-16-16-16h-16v-32h32c8.835938 0 16-7.164062 16-16s-7.164062-16-16-16zm0 0"/><path d="m496 464h-16v-80c-.046875-38-26.777344-70.746094-64-78.398438v-1.601562c0-8.835938-7.164062-16-16-16s-16 7.164062-16 16v1.601562c-37.222656 7.652344-63.953125 40.398438-64 78.398438v80h-16c-8.835938 0-16 7.164062-16 16s7.164062 16 16 16h80c0 8.835938 7.164062 16 16 16s16-7.164062 16-16h80c8.835938 0 16-7.164062 16-16s-7.164062-16-16-16zm-144 0v-80c0-26.511719 21.488281-48 48-48 26.507812 0 48 21.488281 48 48v80zm0 0"/></g></svg>