<svg height="512pt" viewBox="0 0 512.00066 512" width="512pt" xmlns="http://www.w3.org/2000/svg"><path d="m464 48h-80v-16c0-8.835938-7.164062-16-16-16h-32c-8.835938 0-16 7.164062-16 16v16h-128v-16c0-8.835938-7.164062-16-16-16h-32c-8.835938 0-16 7.164062-16 16v16h-80c-17.652344.054688-31.949219 14.347656-32 32v64h480v-64c-.050781-17.652344-14.347656-31.945312-32-32zm0 0" fill="#78b9eb"/><path d="m96 224h64v64h-64zm0 0" fill="#78b9eb"/><path d="m224 224h64v64h-64zm0 0" fill="#78b9eb"/><path d="m96 352h64v64h-64zm0 0" fill="#78b9eb"/><path d="m416 352c-35.347656-.007812-64.007812 28.640625-64.011719 63.984375-.007812 35.347656 28.636719 64.007813 63.984375 64.015625s64.007813-28.640625 64.011719-63.988281c.003906-16.972657-6.734375-33.253907-18.738281-45.261719-11.980469-12.023438-28.269532-18.773438-45.246094-18.75zm0 0" fill="#78b9eb"/><g fill="#1e81ce"><path d="m464 32h-64c0-17.671875-14.328125-32-32-32h-32c-17.671875 0-32 14.328125-32 32h-96c0-17.671875-14.328125-32-32-32h-32c-17.671875 0-32 14.328125-32 32h-64c-26.507812 0-48 21.492188-48 48v384c0 26.511719 21.492188 48 48 48h240c8.835938 0 16-7.164062 16-16s-7.164062-16-16-16h-240c-8.835938 0-16-7.164062-16-16v-304h448v128c0 8.835938 7.164062 16 16 16s16-7.164062 16-16v-208c0-26.507812-21.492188-48-48-48zm-432 96v-48c0-8.835938 7.164062-16 16-16h64v16c0 8.835938 7.164062 16 16 16s16-7.164062 16-16v-48h32v48c0 8.835938 7.164062 16 16 16s16-7.164062 16-16v-16h96v16c0 8.835938 7.164062 16 16 16s16-7.164062 16-16v-48h32v48c0 8.835938 7.164062 16 16 16s16-7.164062 16-16v-16h64c8.835938 0 16 7.164062 16 16v48zm0 0"/><path d="m176 224c0-8.835938-7.164062-16-16-16h-64c-8.835938 0-16 7.164062-16 16v64c0 8.835938 7.164062 16 16 16h64c8.835938 0 16-7.164062 16-16zm-32 48h-32v-32h32zm0 0"/><path d="m288 208h-64c-8.835938 0-16 7.164062-16 16v64c0 8.835938 7.164062 16 16 16h64c8.835938 0 16-7.164062 16-16v-64c0-8.835938-7.164062-16-16-16zm-16 64h-32v-32h32zm0 0"/><path d="m416 272c8.835938 0 16-7.164062 16-16v-32c0-8.835938-7.164062-16-16-16h-64c-8.835938 0-16 7.164062-16 16v48c0 8.835938 7.164062 16 16 16s16-7.164062 16-16v-32h32v16c0 8.835938 7.164062 16 16 16zm0 0"/><path d="m160 336h-64c-8.835938 0-16 7.164062-16 16v64c0 8.835938 7.164062 16 16 16h64c8.835938 0 16-7.164062 16-16v-64c0-8.835938-7.164062-16-16-16zm-16 64h-32v-32h32zm0 0"/><path d="m272 368c8.835938 0 16-7.164062 16-16s-7.164062-16-16-16h-48c-8.835938 0-16 7.164062-16 16v64c0 8.835938 7.164062 16 16 16h32c8.835938 0 16-7.164062 16-16s-7.164062-16-16-16h-16v-32zm0 0"/><path d="m482.671875 371.953125 12.527344-12.527344-22.625-22.625-12.527344 12.527344c-8.503906-5.679687-18.03125-9.660156-28.046875-11.726563v-17.601562h-32v17.601562c-10.015625 2.058594-19.539062 6.035157-28.046875 11.710938l-12.527344-12.527344-22.625 22.640625 12.527344 12.527344c-5.679687 8.503906-9.660156 18.03125-11.726563 28.046875h-17.601562v32h17.601562c2.058594 10.015625 6.035157 19.539062 11.710938 28.046875l-12.527344 12.527344 22.625 22.625 12.527344-12.527344c8.511719 5.683594 18.039062 9.664063 28.0625 11.726563v17.601562h32v-17.601562c10.015625-2.058594 19.542969-6.035157 28.046875-11.710938l12.53125 12.527344 22.621094-22.625-12.527344-12.527344c5.683594-8.511719 9.664063-18.039062 11.730469-28.0625h17.597656v-32h-17.597656c-2.066406-10.019531-6.050782-19.542969-11.730469-28.046875zm-66.671875 92.046875c-26.511719 0-48-21.488281-48-48s21.488281-48 48-48c26.507812 0 48 21.488281 48 48s-21.492188 48-48 48zm0 0"/></g></svg>