<svg height="511pt" viewBox="0 0 511.99919 511" width="511pt" xmlns="http://www.w3.org/2000/svg"><path d="m463.882812 48.488281h-79.980468v-15.996093c0-8.835938-7.160156-15.996094-15.996094-15.996094h-31.992188c-8.832031 0-15.996093 7.160156-15.996093 15.996094v15.996093h-127.964844v-15.996093c0-8.835938-7.164063-15.996094-15.996094-15.996094h-31.992187c-8.835938 0-15.996094 7.160156-15.996094 15.996094v15.996093h-79.980469c-17.648437.050781-31.941406 14.34375-31.992187 31.992188v63.984375h479.878906v-63.984375c-.050781-17.648438-14.34375-31.941407-31.992188-31.992188zm0 0" fill="#78b9eb"/><path d="m95.976562 224.445312h63.984376v63.984376h-63.984376zm0 0" fill="#78b9eb"/><path d="m223.945312 224.445312h63.980469v63.984376h-63.980469zm0 0" fill="#78b9eb"/><path d="m95.976562 352.410156h63.984376v63.984375h-63.984376zm0 0" fill="#78b9eb"/><g fill="#1e81ce"><path d="m463.882812 32.492188h-63.984374c0-17.667969-14.324219-31.992188-31.992188-31.992188h-31.992188c-17.667968 0-31.992187 14.324219-31.992187 31.992188h-95.972656c0-17.667969-14.324219-31.992188-31.992188-31.992188h-31.992187c-17.667969 0-31.992188 14.324219-31.992188 31.992188h-63.984375c-26.503906 0-47.988281 21.484374-47.988281 47.988281v383.902343c0 26.503907 21.484375 47.988282 47.988281 47.988282h239.9375c8.835938 0 15.996094-7.160156 15.996094-15.996094s-7.160156-15.996094-15.996094-15.996094h-239.9375c-8.835937 0-15.996093-7.160156-15.996093-15.996094v-303.921874h447.886718v127.964843c0 8.835938 7.164063 15.996094 15.996094 15.996094 8.835938 0 15.996094-7.160156 15.996094-15.996094v-207.945312c0-26.503907-21.484375-47.988281-47.988282-47.988281zm15.996094 95.976562h-447.886718v-47.988281c0-8.835938 7.160156-15.996094 15.996093-15.996094h63.984375v15.996094c0 8.832031 7.160156 15.996093 15.996094 15.996093 8.832031 0 15.996094-7.164062 15.996094-15.996093v-47.988281h31.992187v47.988281c0 8.832031 7.160157 15.996093 15.996094 15.996093 8.832031 0 15.996094-7.164062 15.996094-15.996093v-15.996094h95.972656v15.996094c0 8.832031 7.164063 15.996093 15.996094 15.996093 8.835937 0 15.996093-7.164062 15.996093-15.996093v-47.988281h31.992188v47.988281c0 8.832031 7.164062 15.996093 15.996094 15.996093 8.835937 0 15.996094-7.164062 15.996094-15.996093v-15.996094h63.984374c8.835938 0 15.996094 7.160156 15.996094 15.996094zm0 0"/><path d="m175.957031 224.445312c0-8.835937-7.164062-15.996093-15.996093-15.996093h-63.984376c-8.835937 0-15.996093 7.160156-15.996093 15.996093v63.984376c0 8.832031 7.160156 15.996093 15.996093 15.996093h63.984376c8.832031 0 15.996093-7.164062 15.996093-15.996093zm-31.992187 47.984376h-31.992188v-31.992188h31.992188zm0 0"/><path d="m223.945312 304.421875h63.980469c8.835938 0 15.996094-7.160156 15.996094-15.996094v-63.980469c0-8.835937-7.160156-15.996093-15.996094-15.996093h-63.980469c-8.835937 0-15.996093 7.160156-15.996093 15.996093v63.984376c0 8.832031 7.160156 15.992187 15.996093 15.992187zm15.996094-63.980469h31.992188v31.992188h-31.992188zm0 0"/><path d="m415.894531 272.429688c8.835938 0 15.996094-7.160157 15.996094-15.996094v-31.988282c0-8.835937-7.160156-15.996093-15.996094-15.996093h-63.984375c-8.832031 0-15.996094 7.160156-15.996094 15.996093v47.988282c0 8.832031 7.164063 15.996094 15.996094 15.996094 8.835938 0 15.996094-7.164063 15.996094-15.996094v-31.992188h31.992188v15.996094c0 8.832031 7.164062 15.992188 15.996093 15.992188zm0 0"/><path d="m159.960938 336.414062h-63.984376c-8.835937 0-15.996093 7.164063-15.996093 15.996094v63.984375c0 8.835938 7.160156 15.996094 15.996093 15.996094h63.984376c8.832031 0 15.996093-7.160156 15.996093-15.996094v-63.984375c0-8.832031-7.164062-15.996094-15.996093-15.996094zm-15.996094 63.984376h-31.992188v-31.992188h31.992188zm0 0"/><path d="m271.933594 368.40625c8.832031 0 15.992187-7.160156 15.992187-15.996094 0-8.832031-7.160156-15.996094-15.992187-15.996094h-47.988282c-8.835937 0-15.996093 7.164063-15.996093 15.996094v63.984375c0 8.835938 7.160156 15.996094 15.996093 15.996094h31.992188c8.832031 0 15.996094-7.160156 15.996094-15.996094 0-8.832031-7.164063-15.996093-15.996094-15.996093h-15.996094v-31.992188zm0 0"/><path d="m415.894531 320.417969c-8.832031 0-15.996093 7.164062-15.996093 15.996093 0 8.835938 7.164062 15.996094 15.996093 15.996094 35.339844 0 63.984375 28.648438 63.984375 63.984375 0 35.339844-28.644531 63.984375-63.984375 63.984375-35.335937 0-63.984375-28.644531-63.984375-63.984375.027344-3.980469.429688-7.949219 1.199219-11.851562l14.894531 27.847656c4.167969 7.792969 13.867188 10.730469 21.65625 6.558594 7.792969-4.167969 10.730469-13.867188 6.558594-21.65625l-30.199219-56.417969c0-.097656-.160156-.144531-.207031-.242188-.527344-.746093-1.109375-1.453124-1.746094-2.109374-.695312-.988282-1.5-1.894532-2.398437-2.703126l-.160157-.210937c-.605468-.34375-1.238281-.640625-1.886718-.894531-1.09375-.699219-2.273438-1.265625-3.503906-1.679688-.941407-.183594-1.902344-.28125-2.863282-.289062-3.03125.035156-6.039062.574218-8.894531 1.601562l-56.433594 30.152344c-7.789062 4.167969-10.726562 13.867188-6.558593 21.65625 4.171874 7.792969 13.867187 10.730469 21.660156 6.558594l17.929687-9.597656c-7.332031 52.496093 29.28125 101 81.777344 108.332031s100.996094-29.28125 108.332031-81.777344c7.332032-52.496094-29.28125-100.996094-81.777344-108.328125-4.4375-.621094-8.914062-.929688-13.394531-.925781zm0 0"/></g></svg>