<svg height="511.99997pt" viewBox="1 1 511.99997 511.99997" width="511.99997pt" xmlns="http://www.w3.org/2000/svg"><path d="m96 224h64v64h-64zm0 0" fill="#78b9eb"/><path d="m224 224h64v64h-64zm0 0" fill="#78b9eb"/><path d="m96 352h64v64h-64zm0 0" fill="#78b9eb"/><path d="m464 48h-80v-16c0-8.835938-7.164062-16-16-16h-32c-8.835938 0-16 7.164062-16 16v16h-128v-16c0-8.835938-7.164062-16-16-16h-32c-8.835938 0-16 7.164062-16 16v16h-80c-17.652344.050781-31.949219 14.347656-32 32v64h480v-64c-.050781-17.652344-14.347656-31.949219-32-32zm0 0" fill="#78b9eb"/><path d="m496 400c0 53.019531-42.980469 96-96 96s-96-42.980469-96-96 42.980469-96 96-96 96 42.980469 96 96zm0 0" fill="#78b9eb"/><g fill="#1e81ce"><path d="m464 32h-64c0-17.671875-14.328125-32-32-32h-32c-17.671875 0-32 14.328125-32 32h-96c0-17.671875-14.328125-32-32-32h-32c-17.671875 0-32 14.328125-32 32h-64c-26.507812 0-48 21.492188-48 48v384c0 26.507812 21.492188 48 48 48h240c8.835938 0 16-7.164062 16-16s-7.164062-16-16-16h-240c-8.835938 0-16-7.164062-16-16v-304h448v128c0 8.835938 7.164062 16 16 16s16-7.164062 16-16v-208c0-26.507812-21.492188-48-48-48zm-432 96v-48c0-8.835938 7.164062-16 16-16h64v16c0 8.835938 7.164062 16 16 16s16-7.164062 16-16v-48h32v48c0 8.835938 7.164062 16 16 16s16-7.164062 16-16v-16h96v16c0 8.835938 7.164062 16 16 16s16-7.164062 16-16v-48h32v48c0 8.835938 7.164062 16 16 16s16-7.164062 16-16v-16h64c8.835938 0 16 7.164062 16 16v48zm0 0"/><path d="m176 224c0-8.835938-7.164062-16-16-16h-64c-8.835938 0-16 7.164062-16 16v64c0 8.835938 7.164062 16 16 16h64c8.835938 0 16-7.164062 16-16zm-32 48h-32v-32h32zm0 0"/><path d="m224 304h64c8.835938 0 16-7.164062 16-16v-64c0-8.835938-7.164062-16-16-16h-64c-8.835938 0-16 7.164062-16 16v64c0 8.835938 7.164062 16 16 16zm16-64h32v32h-32zm0 0"/><path d="m416 272c8.835938 0 16-7.164062 16-16v-32c0-8.835938-7.164062-16-16-16h-64c-8.835938 0-16 7.164062-16 16v48c0 8.835938 7.164062 16 16 16s16-7.164062 16-16v-32h32v16c0 8.835938 7.164062 16 16 16zm0 0"/><path d="m160 336h-64c-8.835938 0-16 7.164062-16 16v64c0 8.835938 7.164062 16 16 16h64c8.835938 0 16-7.164062 16-16v-64c0-8.835938-7.164062-16-16-16zm-16 64h-32v-32h32zm0 0"/><path d="m272 368c8.835938 0 16-7.164062 16-16s-7.164062-16-16-16h-48c-8.835938 0-16 7.164062-16 16v64c0 8.835938 7.164062 16 16 16h32c8.835938 0 16-7.164062 16-16s-7.164062-16-16-16h-16v-32zm0 0"/><path d="m400 288c-61.855469 0-112 50.144531-112 112s50.144531 112 112 112 112-50.144531 112-112c-.070312-61.828125-50.171875-111.929688-112-112zm0 192c-44.183594 0-80-35.816406-80-80s35.816406-80 80-80 80 35.816406 80 80c-.054688 44.160156-35.839844 79.945312-80 80zm0 0"/><path d="m416 393.375v-41.375c0-8.835938-7.164062-16-16-16s-16 7.164062-16 16v48c0 4.242188 1.6875 8.3125 4.6875 11.3125l32 32c6.355469 6.136719 16.484375 5.960938 22.625-.394531 5.988281-6.199219 5.988281-16.03125 0-22.230469zm0 0"/></g></svg>