<svg height="512pt" viewBox="0 0 512.00071 512" width="512pt" xmlns="http://www.w3.org/2000/svg"><path d="m96 223.996094h64v64h-64zm0 0" fill="#78b9eb"/><path d="m223.996094 223.996094h64v64h-64zm0 0" fill="#78b9eb"/><path d="m96 351.996094h64v64h-64zm0 0" fill="#78b9eb"/><path d="m463.992188 48h-79.996094v-16c0-8.835938-7.164063-16-16-16h-32c-8.835938 0-16 7.164062-16 16v16h-128v-16c0-8.835938-7.164063-16-16-16h-32c-8.835938 0-16 7.164062-16 16v16h-79.996094c-17.652344.050781-31.949219 14.347656-32 32v64h479.992188v-64c-.050782-17.652344-14.347657-31.949219-32-32zm0 0" fill="#78b9eb"/><path d="m271.996094 495.992188h223.996094l-111.996094-223.996094zm0 0" fill="#78b9eb"/><g fill="#1e81ce"><path d="m463.992188 32h-63.996094c0-17.671875-14.328125-32-32-32h-32c-17.671875 0-32 14.328125-32 32h-96c0-17.671875-14.324219-32-32-32h-32c-17.671875 0-31.996094 14.328125-31.996094 32h-64c-26.511719 0-48 21.488281-48 48v383.992188c0 26.511718 21.488281 48 48 48h175.996094c8.835937 0 16-7.164063 16-16 0-8.835938-7.164063-16-16-16h-175.996094c-8.835938 0-16-7.160157-16-16v-303.996094h447.992188v128c0 8.835937 7.164062 16 16 16 8.835937 0 16-7.164063 16-16v-207.996094c0-26.511719-21.488282-48-48-48zm-431.992188 96v-48c0-8.835938 7.164062-16 16-16h64v16c0 8.835938 7.164062 16 16 16s16-7.164062 16-16v-48h32v48c0 8.835938 7.160156 16 15.996094 16 8.839844 0 16-7.164062 16-16v-16h96v16c0 8.835938 7.164062 16 16 16 8.835937 0 16-7.164062 16-16v-48h32v48c0 8.835938 7.164062 16 16 16 8.835937 0 16-7.164062 16-16v-16h64c8.835937 0 15.996094 7.164062 15.996094 16v48zm0 0"/><path d="m175.996094 223.996094c0-8.835938-7.164063-16-16-16h-63.996094c-8.839844 0-16 7.164062-16 16v64c0 8.835937 7.160156 16 16 16h63.996094c8.835937 0 16-7.164063 16-16zm-32 48h-31.996094v-32h31.996094zm0 0"/><path d="m223.996094 303.996094h64c8.835937 0 16-7.164063 16-16v-64c0-8.835938-7.164063-16-16-16h-64c-8.835938 0-16 7.164062-16 16v64c0 8.835937 7.164062 16 16 16zm16-64h32v32h-32zm0 0"/><path d="m367.996094 255.996094v-16h47.996094c8.839843 0 16-7.164063 16-16 0-8.835938-7.160157-16-16-16h-63.996094c-8.835938 0-16 7.164062-16 16v32c0 8.835937 7.164062 16 16 16 8.835937 0 16-7.164063 16-16zm0 0"/><path d="m159.996094 335.996094h-63.996094c-8.839844 0-16 7.164062-16 16v64c0 8.835937 7.160156 16 16 16h63.996094c8.835937 0 16-7.164063 16-16v-64c0-8.835938-7.160156-16-16-16zm-16 64h-31.996094v-32h31.996094zm0 0"/><path d="m207.996094 415.996094c0 8.835937 7.164062 16 16 16h32c8.835937 0 16-7.164063 16-16 0-8.835938-7.164063-16-16-16h-16v-32h32c8.835937 0 16-7.164063 16-16 0-8.835938-7.164063-16-16-16h-48c-8.835938 0-16 7.164062-16 16zm0 0"/><path d="m398.394531 264.84375c-4.714843-7.90625-14.949219-10.496094-22.859375-5.78125-2.375 1.417969-4.363281 3.40625-5.78125 5.78125l-111.996094 224c-3.953124 7.902344-.746093 17.511719 7.160157 21.460938 2.199219 1.101562 4.621093 1.675781 7.078125 1.6875h223.996094c8.835937.003906 16.003906-7.15625 16.007812-15.992188.003906-2.484375-.574219-4.933594-1.6875-7.15625zm-100.511719 215.148438 86.113282-172.21875 86.109375 172.21875zm0 0"/><path d="m367.996094 431.996094h32v31.996094h-32zm0 0"/><path d="m367.996094 351.996094h32v64h-32zm0 0"/></g></svg>