<svg height="512pt" viewBox="0 0 512 512.00012" width="512pt" xmlns="http://www.w3.org/2000/svg"><g fill="#78b9eb"><path d="m464 48h-80v-16c0-8.835938-7.164062-16-16-16h-32c-8.835938 0-16 7.164062-16 16v16h-128v-16c0-8.835938-7.164062-16-16-16h-32c-8.835938 0-16 7.164062-16 16v16h-80c-17.652344.050781-31.945312 14.347656-32 32v64h480v-64c-.054688-17.652344-14.347656-31.949219-32-32zm0 0"/><path d="m96 224h64v64h-64zm0 0"/><path d="m224 224h64v64h-64zm0 0"/><path d="m96 352h64v64h-64zm0 0"/><path d="m464 302.015625c-15.304688-8.835937-34.875-3.59375-43.710938 11.710937l-16 27.710938 55.421876 32.003906 16-27.714844c8.835937-15.304687 3.59375-34.875-11.710938-43.710937zm0 0"/><path d="m348.277344 438.445312 56-96.988281 55.421875 32-56 96.988281zm0 0"/><path d="m352 496 51.710938-25.570312-55.421876-32zm0 0"/></g><path d="m464 32h-64c0-17.671875-14.328125-32-32-32h-32c-17.671875 0-32 14.328125-32 32h-96c0-17.671875-14.328125-32-32-32h-32c-17.671875 0-32 14.328125-32 32h-64c-26.507812 0-48 21.492188-48 48v384c0 26.507812 21.492188 48 48 48h240c8.835938 0 16-7.164062 16-16s-7.164062-16-16-16h-240c-8.835938 0-16-7.164062-16-16v-304h448v96c0 8.835938 7.164062 16 16 16s16-7.164062 16-16v-176c0-26.507812-21.492188-48-48-48zm-432 96v-48c0-8.835938 7.164062-16 16-16h64v16c0 8.835938 7.164062 16 16 16s16-7.164062 16-16v-48h32v48c0 8.835938 7.164062 16 16 16s16-7.164062 16-16v-16h96v16c0 8.835938 7.164062 16 16 16s16-7.164062 16-16v-48h32v48c0 8.835938 7.164062 16 16 16s16-7.164062 16-16v-16h64c8.835938 0 16 7.164062 16 16v48zm0 0" fill="#1e81ce"/><path d="m176 224c0-8.835938-7.164062-16-16-16h-64c-8.835938 0-16 7.164062-16 16v64c0 8.835938 7.164062 16 16 16h64c8.835938 0 16-7.164062 16-16zm-32 48h-32v-32h32zm0 0" fill="#1e81ce"/><path d="m288 208h-64c-8.835938 0-16 7.164062-16 16v64c0 8.835938 7.164062 16 16 16h64c8.835938 0 16-7.164062 16-16v-64c0-8.835938-7.164062-16-16-16zm-16 64h-32v-32h32zm0 0" fill="#1e81ce"/><path d="m416 272c8.835938 0 16-7.164062 16-16v-32c0-8.835938-7.164062-16-16-16h-64c-8.835938 0-16 7.164062-16 16v48c0 8.835938 7.164062 16 16 16s16-7.164062 16-16v-32h32v16c0 8.835938 7.164062 16 16 16zm0 0" fill="#1e81ce"/><path d="m160 336h-64c-8.835938 0-16 7.164062-16 16v64c0 8.835938 7.164062 16 16 16h64c8.835938 0 16-7.164062 16-16v-64c0-8.835938-7.164062-16-16-16zm-16 64h-32v-32h32zm0 0" fill="#1e81ce"/><path d="m272 368c8.835938 0 16-7.164062 16-16s-7.164062-16-16-16h-48c-8.835938 0-16 7.164062-16 16v64c0 8.835938 7.164062 16 16 16h32c8.835938 0 16-7.164062 16-16s-7.164062-16-16-16h-16v-32zm0 0" fill="#1e81ce"/><path d="m472 288.144531c-22.953125-13.261719-52.3125-5.402343-65.574219 17.554688-.007812.011719-.015625.027343-.027343.042969l-72 124.65625c-1.21875 2.175781-1.886719 4.613281-1.949219 7.105468-.089844.636719-.136719 1.277344-.144531 1.917969l3.710937 57.601563c.542969 8.429687 7.539063 14.984374 15.984375 14.976562 2.457031.023438 4.882812-.523438 7.089844-1.601562l51.726562-25.597657c.117188-.070312.230469-.152343.335938-.242187.933594-.503906 1.808594-1.109375 2.609375-1.808594.347656-.230469.683593-.480469 1.007812-.75 1.109375-1.058594 2.0625-2.273438 2.832031-3.601562l72-124.800782c13.171876-22.9375 5.300782-52.214844-17.601562-65.453125zm-16 27.726563c7.652344 4.417968 10.273438 14.203125 5.855469 21.855468l-8 13.855469-27.710938-16 8-13.855469c4.417969-7.652343 14.203125-10.273437 21.855469-5.855468zm-58.144531 132.703125-27.710938-16 40-69.277344 27.710938 16zm-31.679688 18.625 3.648438 2.113281-3.410157 1.679688zm0 0" fill="#1e81ce"/></svg>